<svg width="18" height="19" viewBox="0 0 18 19" fill="none" xmlns="http://www.w3.org/2000/svg">
<path d="M9.05609 16.7304C13.0227 16.7304 16.2383 13.5148 16.2383 9.54823C16.2383 5.58162 13.0227 2.36604 9.05609 2.36604C5.08948 2.36604 1.8739 5.58162 1.8739 9.54823C1.8739 13.5148 5.08948 16.7304 9.05609 16.7304Z" stroke="#DBDFEA" stroke-width="0.8" stroke-linecap="round" stroke-linejoin="round"/>
<path d="M9.05623 12.4211C10.6429 12.4211 11.9291 11.1349 11.9291 9.54825C11.9291 7.9616 10.6429 6.67537 9.05623 6.67537C7.46958 6.67537 6.18335 7.9616 6.18335 9.54825C6.18335 11.1349 7.46958 12.4211 9.05623 12.4211Z" stroke="#DBDFEA" stroke-width="0.8" stroke-linecap="round" stroke-linejoin="round"/>
<path d="M3.97827 4.47043L7.02352 7.51568" stroke="#DBDFEA" stroke-width="0.8" stroke-linecap="round" stroke-linejoin="round"/>
<path d="M11.0886 11.5808L14.1339 14.6261" stroke="#DBDFEA" stroke-width="0.8" stroke-linecap="round" stroke-linejoin="round"/>
<path d="M11.0886 7.51568L14.1339 4.47043" stroke="#DBDFEA" stroke-width="0.8" stroke-linecap="round" stroke-linejoin="round"/>
<path d="M11.0886 7.51568L13.6239 4.98036" stroke="#DBDFEA" stroke-width="0.8" stroke-linecap="round" stroke-linejoin="round"/>
<path d="M3.97827 14.6261L7.02352 11.5808" stroke="#DBDFEA" stroke-width="0.8" stroke-linecap="round" stroke-linejoin="round"/>
</svg>
