<svg width="23" height="23" viewBox="0 0 23 23" fill="none" xmlns="http://www.w3.org/2000/svg">
<path d="M11.7874 12.5434C12.3031 12.5434 12.7211 12.1253 12.7211 11.6097C12.7211 11.094 12.3031 10.676 11.7874 10.676C11.2718 10.676 10.8538 11.094 10.8538 11.6097C10.8538 12.1253 11.2718 12.5434 11.7874 12.5434Z" fill="#DBDFEA" stroke="#DBDFEA" stroke-linecap="round" stroke-linejoin="round"/>
<path d="M18.3233 12.5434C18.839 12.5434 19.257 12.1253 19.257 11.6097C19.257 11.094 18.839 10.676 18.3233 10.676C17.8077 10.676 17.3896 11.094 17.3896 11.6097C17.3896 12.1253 17.8077 12.5434 18.3233 12.5434Z" fill="#DBDFEA" stroke="#DBDFEA" stroke-linecap="round" stroke-linejoin="round"/>
<path d="M5.25156 12.5434C5.76722 12.5434 6.18524 12.1253 6.18524 11.6097C6.18524 11.094 5.76722 10.676 5.25156 10.676C4.7359 10.676 4.31787 11.094 4.31787 11.6097C4.31787 12.1253 4.7359 12.5434 5.25156 12.5434Z" fill="#DBDFEA" stroke="#DBDFEA" stroke-linecap="round" stroke-linejoin="round"/>
</svg>
