<svg width="18" height="19" viewBox="0 0 18 19" fill="none" xmlns="http://www.w3.org/2000/svg">
<path d="M15.6709 12.1978C15.214 13.2783 14.4994 14.2305 13.5894 14.971C12.6795 15.7116 11.6021 16.218 10.4512 16.4459C9.30041 16.6738 8.11126 16.6164 6.98777 16.2786C5.86428 15.9408 4.84064 15.3329 4.00635 14.5081C3.17207 13.6832 2.55253 12.6666 2.20191 11.547C1.85129 10.4275 1.78026 9.23907 1.99504 8.08572C2.20981 6.93236 2.70385 5.84918 3.43395 4.93086C4.16406 4.01255 5.108 3.28707 6.18326 2.81784" stroke="#DBDFEA" stroke-width="0.8" stroke-linecap="round" stroke-linejoin="round"/>
<path d="M16.2383 9.40391C16.2383 8.46073 16.0526 7.52678 15.6916 6.6554C15.3307 5.78401 14.8017 4.99226 14.1347 4.32533C13.4678 3.6584 12.676 3.12936 11.8047 2.76842C10.9333 2.40748 9.99933 2.22171 9.05615 2.22171V9.40391H16.2383Z" stroke="#DBDFEA" stroke-width="0.8" stroke-linecap="round" stroke-linejoin="round"/>
</svg>
