<svg width="18" height="18" viewBox="0 0 18 18" fill="none" xmlns="http://www.w3.org/2000/svg">
<path d="M9.2142 1.76663H8.89818C8.51721 1.76663 8.15185 1.91797 7.88247 2.18735C7.61308 2.45674 7.46174 2.8221 7.46174 3.20307V3.33235C7.46148 3.58425 7.39499 3.83165 7.26893 4.04973C7.14287 4.26782 6.96167 4.44892 6.74352 4.57487L6.43469 4.75442C6.21632 4.8805 5.96862 4.94687 5.71647 4.94687C5.46432 4.94687 5.21662 4.8805 4.99825 4.75442L4.89052 4.69697C4.5609 4.50683 4.16931 4.45524 3.8017 4.55354C3.43409 4.65184 3.1205 4.89199 2.92978 5.22127L2.77177 5.49419C2.58163 5.8238 2.53005 6.2154 2.62835 6.58301C2.72665 6.95062 2.96679 7.2642 3.29607 7.45493L3.4038 7.52675C3.6209 7.65209 3.80142 7.83206 3.92742 8.04877C4.05342 8.26549 4.12051 8.51141 4.12202 8.76208V9.12838C4.12303 9.38149 4.05713 9.63038 3.93101 9.84983C3.80488 10.0693 3.62301 10.2515 3.4038 10.3781L3.29607 10.4427C2.96679 10.6334 2.72665 10.947 2.62835 11.3146C2.53005 11.6822 2.58163 12.0738 2.77177 12.4035L2.92978 12.6764C3.1205 13.0057 3.43409 13.2458 3.8017 13.3441C4.16931 13.4424 4.5609 13.3908 4.89052 13.2007L4.99825 13.1432C5.21662 13.0171 5.46432 12.9508 5.71647 12.9508C5.96862 12.9508 6.21632 13.0171 6.43469 13.1432L6.74352 13.3228C6.96167 13.4487 7.14287 13.6298 7.26893 13.8479C7.39499 14.066 7.46148 14.3134 7.46174 14.5653V14.6946C7.46174 15.0755 7.61308 15.4409 7.88247 15.7103C8.15185 15.9797 8.51721 16.131 8.89818 16.131H9.2142C9.59517 16.131 9.96053 15.9797 10.2299 15.7103C10.4993 15.4409 10.6506 15.0755 10.6506 14.6946V14.5653C10.6509 14.3134 10.7174 14.066 10.8435 13.8479C10.9695 13.6298 11.1507 13.4487 11.3689 13.3228L11.6777 13.1432C11.8961 13.0171 12.1438 12.9508 12.3959 12.9508C12.6481 12.9508 12.8958 13.0171 13.1141 13.1432L13.2219 13.2007C13.5515 13.3908 13.9431 13.4424 14.3107 13.3441C14.6783 13.2458 14.9919 13.0057 15.1826 12.6764L15.3406 12.3963C15.5307 12.0667 15.5823 11.6751 15.484 11.3075C15.3857 10.9398 15.1456 10.6263 14.8163 10.4355L14.7086 10.3781C14.4894 10.2515 14.3075 10.0693 14.1814 9.84983C14.0552 9.63038 13.9894 9.38149 13.9904 9.12838V8.76927C13.9894 8.51615 14.0552 8.26727 14.1814 8.04781C14.3075 7.82835 14.4894 7.64612 14.7086 7.51957L14.8163 7.45493C15.1456 7.2642 15.3857 6.95062 15.484 6.58301C15.5823 6.2154 15.5307 5.8238 15.3406 5.49419L15.1826 5.22127C14.9919 4.89199 14.6783 4.65184 14.3107 4.55354C13.9431 4.45524 13.5515 4.50683 13.2219 4.69697L13.1141 4.75442C12.8958 4.8805 12.6481 4.94687 12.3959 4.94687C12.1438 4.94687 11.8961 4.8805 11.6777 4.75442L11.3689 4.57487C11.1507 4.44892 10.9695 4.26782 10.8435 4.04973C10.7174 3.83165 10.6509 3.58425 10.6506 3.33235V3.20307C10.6506 2.8221 10.4993 2.45674 10.2299 2.18735C9.96053 1.91797 9.59517 1.76663 9.2142 1.76663V1.76663Z" stroke="#DBDFEA" stroke-width="0.8" stroke-linecap="round" stroke-linejoin="round"/>
<path d="M9.05602 11.1035C10.246 11.1035 11.2107 10.1388 11.2107 8.94883C11.2107 7.75885 10.246 6.79417 9.05602 6.79417C7.86604 6.79417 6.90137 7.75885 6.90137 8.94883C6.90137 10.1388 7.86604 11.1035 9.05602 11.1035Z" stroke="#DBDFEA" stroke-width="0.8" stroke-linecap="round" stroke-linejoin="round"/>
</svg>
