<svg width="18" height="18" viewBox="0 0 18 18" fill="none" xmlns="http://www.w3.org/2000/svg">
<g clip-path="url(#clip0_1_470)">
<path d="M12.6473 15.4722V14.0357C12.6473 13.2738 12.3446 12.5431 11.8058 12.0043C11.2671 11.4655 10.5363 11.1628 9.77439 11.1628H4.02864C3.2667 11.1628 2.53598 11.4655 1.99721 12.0043C1.45844 12.5431 1.15576 13.2738 1.15576 14.0357V15.4722" stroke="#DBDFEA" stroke-width="0.8" stroke-linecap="round" stroke-linejoin="round"/>
<path d="M6.90144 8.28998C8.48809 8.28998 9.77432 7.00375 9.77432 5.4171C9.77432 3.83045 8.48809 2.54422 6.90144 2.54422C5.3148 2.54422 4.02856 3.83045 4.02856 5.4171C4.02856 7.00375 5.3148 8.28998 6.90144 8.28998Z" stroke="#DBDFEA" stroke-width="0.8" stroke-linecap="round" stroke-linejoin="round"/>
<path d="M16.9567 15.4722V14.0357C16.9562 13.3992 16.7443 12.7808 16.3543 12.2778C15.9644 11.7747 15.4183 11.4154 14.802 11.2562" stroke="#DBDFEA" stroke-width="0.8" stroke-linecap="round" stroke-linejoin="round"/>
<path d="M11.929 2.63757C12.5469 2.7958 13.0947 3.15519 13.4858 3.6591C13.8769 4.16301 14.0892 4.78277 14.0892 5.42067C14.0892 6.05858 13.8769 6.67833 13.4858 7.18224C13.0947 7.68615 12.5469 8.04555 11.929 8.20378" stroke="#DBDFEA" stroke-width="0.8" stroke-linecap="round" stroke-linejoin="round"/>
</g>
<defs>
<clipPath id="clip0_1_470">
<rect x="0.4375" y="0.389557" width="17.2373" height="17.2373" fill="white"/>
</clipPath>
</defs>
</svg>
