<svg width="18" height="18" viewBox="0 0 18 18" fill="none" xmlns="http://www.w3.org/2000/svg">
<path d="M14.8019 8.80636V5.93349H4.74686C4.3659 5.93349 4.00053 5.78215 3.73115 5.51276C3.46176 5.24338 3.31042 4.87801 3.31042 4.49705C3.31042 3.70701 3.95682 3.06061 4.74686 3.06061H13.3655V5.93349" stroke="#DBDFEA" stroke-width="0.8" stroke-linecap="round" stroke-linejoin="round"/>
<path d="M3.31042 4.49707V13.1157C3.31042 13.9057 3.95682 14.5521 4.74686 14.5521H14.8019V11.6793" stroke="#DBDFEA" stroke-width="0.8" stroke-linecap="round" stroke-linejoin="round"/>
<path d="M13.3654 8.80637C12.9844 8.80637 12.6191 8.9577 12.3497 9.22709C12.0803 9.49647 11.929 9.86184 11.929 10.2428C11.929 11.0328 12.5754 11.6792 13.3654 11.6792H16.2383V8.80637H13.3654Z" stroke="#DBDFEA" stroke-width="0.8" stroke-linecap="round" stroke-linejoin="round"/>
</svg>
