<svg width="37" height="34" viewBox="0 0 37 34" fill="none" xmlns="http://www.w3.org/2000/svg">
<g filter="url(#filter0_d_1_687)">
<path d="M20.3579 7.82659C20.7859 7.71191 21.1643 7.45964 21.4348 7.10869C21.7053 6.75773 21.8528 6.32756 21.8547 5.88448V5.87921C21.8547 5.34669 21.6432 4.83598 21.2666 4.45943C20.89 4.08288 20.3793 3.87134 19.8468 3.87134H19.8417C19.3986 3.87328 18.9685 4.02086 18.6177 4.29134C18.2668 4.56182 18.0145 4.94019 17.8999 5.36814C17.5719 6.55634 16.8631 7.60412 15.8824 8.35081C14.9016 9.0975 13.703 9.50185 12.4704 9.50185C11.2377 9.50185 10.0391 9.0975 9.05835 8.35081C8.07759 7.60412 7.36886 6.55634 7.04083 5.36814C6.92609 4.94023 6.67382 4.56191 6.32289 4.2915C5.97196 4.02107 5.54186 3.87356 5.09883 3.87167H5.09357C4.56105 3.87167 4.05033 4.08322 3.67378 4.45976C3.29724 4.83631 3.08569 5.34702 3.08569 5.87955V5.88481C3.08765 6.32784 3.23524 6.75793 3.50572 7.10883C3.7762 7.45971 4.15456 7.71192 4.5825 7.82659C5.7707 8.15461 6.81849 8.86335 7.56517 9.84411C8.31185 10.8249 8.71621 12.0235 8.71621 13.2561C8.71621 14.4888 8.31185 15.6873 7.56517 16.6681C6.81849 17.6489 5.7707 18.3576 4.5825 18.6856C4.15458 18.8004 3.77625 19.0525 3.5058 19.4034C3.23534 19.7543 3.08777 20.1844 3.08581 20.6273V20.6326C3.08581 21.1652 3.29735 21.6758 3.67389 22.0524C4.05045 22.4289 4.56115 22.6405 5.09368 22.6405H5.09894C5.54198 22.6385 5.97207 22.4909 6.32296 22.2205C6.67384 21.9499 6.92605 21.5716 7.04072 21.1436C7.36875 19.9555 8.07749 18.9077 9.05824 18.161C10.039 17.4142 11.2376 17.0099 12.4703 17.0099C13.7029 17.0099 14.9015 17.4142 15.8823 18.161C16.863 18.9077 17.5718 19.9555 17.8998 21.1436C18.0144 21.5716 18.2667 21.95 18.6176 22.2206C18.9684 22.491 19.3986 22.6387 19.8417 22.6406H19.8469C20.3794 22.6406 20.8901 22.4289 21.2667 22.0524C21.6432 21.6759 21.8548 21.1652 21.8548 20.6327V20.6273C21.8529 20.1842 21.7053 19.7542 21.4348 19.4033C21.1643 19.0524 20.786 18.8003 20.358 18.6855C19.1698 18.3575 18.1221 17.6488 17.3754 16.668C16.6286 15.6872 16.2243 14.4886 16.2243 13.256C16.2243 12.0234 16.6286 10.8248 17.3754 9.844C18.1221 8.86324 19.1698 8.15451 20.358 7.82648L20.3579 7.82659Z" fill="url(#paint0_linear_1_687)"/>
<path d="M2.64863 1.99631C2.71322 2.06054 2.79622 2.10306 2.88609 2.11794C2.97596 2.13281 3.06822 2.11931 3.15007 2.07932C3.89681 1.71869 4.73703 1.59858 5.5549 1.73554C6.37278 1.8725 7.12803 2.2598 7.71654 2.84402C7.79767 2.92577 7.9073 2.97291 8.02245 2.97554C8.13759 2.97817 8.24927 2.9361 8.33404 2.85814C8.37616 2.81793 8.40983 2.76971 8.43305 2.71631C8.45627 2.66291 8.46859 2.6054 8.46927 2.54717C8.46994 2.48894 8.45897 2.43117 8.43701 2.37724C8.41503 2.32331 8.3825 2.27432 8.34132 2.23313C7.62366 1.51724 6.70099 1.04243 5.70129 0.874592C4.7016 0.706752 3.67445 0.854198 2.76234 1.29647C2.70025 1.32727 2.64637 1.37242 2.60521 1.4282C2.56405 1.48397 2.53679 1.54876 2.52566 1.61718C2.51455 1.6856 2.5199 1.75568 2.54129 1.82162C2.56267 1.88755 2.59948 1.94744 2.64863 1.99631Z" fill="url(#paint1_linear_1_687)"/>
<path d="M0.512215 3.54462C0.0704791 4.45379 -0.0782268 5.47764 0.0866142 6.47491C0.251455 7.47219 0.721718 8.39373 1.43252 9.1124C1.50727 9.19094 1.60793 9.23976 1.71589 9.24983C1.82384 9.25991 1.93179 9.23054 2.01977 9.16718C2.06961 9.12952 2.11081 9.0816 2.14056 9.02666C2.17032 8.97174 2.18795 8.91105 2.19225 8.84873C2.19656 8.78641 2.18746 8.72389 2.16556 8.66537C2.14364 8.60686 2.10944 8.55374 2.06526 8.50958C1.47804 7.92093 1.08842 7.16423 0.950385 6.34431C0.812349 5.52437 0.932728 4.68181 1.29484 3.93336C1.33514 3.85142 1.34886 3.75895 1.3341 3.66885C1.31934 3.57873 1.27683 3.49549 1.2125 3.43069C1.16359 3.38149 1.10366 3.34466 1.03767 3.32326C0.971686 3.30188 0.901547 3.29652 0.833078 3.30766C0.764609 3.31881 0.699783 3.34611 0.64398 3.38732C0.588178 3.42853 0.543005 3.48246 0.512215 3.54462Z" fill="url(#paint2_linear_1_687)"/>
<path d="M21.7912 24.4329C21.0441 24.7936 20.2037 24.9137 19.3856 24.7765C18.5676 24.6393 17.8121 24.2517 17.2237 23.6672C17.1427 23.5858 17.0334 23.5389 16.9187 23.5363C16.8039 23.5336 16.6927 23.5755 16.6081 23.6532C16.5657 23.6933 16.5319 23.7416 16.5085 23.795C16.4852 23.8484 16.4727 23.906 16.472 23.9644C16.4712 24.0227 16.4822 24.0807 16.5041 24.1347C16.5261 24.1888 16.5587 24.2378 16.5999 24.2791C17.3175 24.9949 18.2402 25.4697 19.2399 25.6376C20.2396 25.8054 21.2667 25.658 22.1789 25.2157C22.2409 25.1849 22.2948 25.1398 22.3361 25.084C22.3772 25.0282 22.4044 24.9634 22.4155 24.895C22.4266 24.8265 22.4212 24.7564 22.3998 24.6905C22.3784 24.6246 22.3415 24.5647 22.2924 24.5159C22.2278 24.4517 22.1448 24.4092 22.055 24.3943C21.9652 24.3794 21.8729 24.3929 21.7912 24.4329Z" fill="url(#paint3_linear_1_687)"/>
<path d="M22.8675 17.3934C22.7898 17.478 22.7479 17.5892 22.7506 17.704C22.7532 17.8188 22.8001 17.9281 22.8815 18.009C23.4665 18.5979 23.8542 19.354 23.991 20.1727C24.1279 20.9915 24.0071 21.8325 23.6455 22.5797C23.6054 22.6616 23.5918 22.7539 23.6066 22.8439C23.6215 22.9338 23.664 23.017 23.7283 23.0816C23.7771 23.1308 23.8369 23.1675 23.9028 23.189C23.9687 23.2104 24.0387 23.2158 24.1072 23.2047C24.1755 23.1936 24.2404 23.1665 24.296 23.1254C24.3518 23.0843 24.3971 23.0305 24.4279 22.9684C24.8715 22.0561 25.02 21.0282 24.8526 20.0277C24.6852 19.0271 24.2103 18.1035 23.4939 17.3852C23.4527 17.3439 23.4035 17.3113 23.3494 17.2892C23.2953 17.2671 23.2374 17.2562 23.179 17.2569C23.1205 17.2577 23.0629 17.2702 23.0094 17.2937C22.9558 17.3171 22.9077 17.3509 22.8675 17.3934Z" fill="url(#paint4_linear_1_687)"/>
<path d="M23.6463 3.93395C24.0076 4.68103 24.128 5.52183 23.991 6.34028C23.854 7.15874 23.4662 7.91449 22.8815 8.50323C22.8001 8.58414 22.7532 8.69342 22.7506 8.80814C22.7479 8.92287 22.7898 9.03416 22.8675 9.11871C22.9076 9.16103 22.9558 9.1949 23.0093 9.21829C23.0627 9.24167 23.1203 9.25413 23.1787 9.2549C23.237 9.25567 23.2948 9.24475 23.349 9.22278C23.4029 9.20081 23.4521 9.16825 23.4934 9.127C24.2095 8.409 24.6845 7.48582 24.8521 6.48563C25.0198 5.48545 24.872 4.45786 24.429 3.54555C24.3982 3.48348 24.3529 3.42966 24.2972 3.38854C24.2414 3.34742 24.1766 3.3202 24.1082 3.30913C24.0398 3.29806 23.9697 3.30345 23.9038 3.32487C23.8378 3.34629 23.778 3.38311 23.7292 3.43229C23.665 3.49692 23.6224 3.57997 23.6075 3.66987C23.5927 3.75978 23.6063 3.85208 23.6463 3.93395Z" fill="url(#paint5_linear_1_687)"/>
<path d="M17.2234 2.84503C17.8121 2.26017 18.5679 1.87247 19.3863 1.73546C20.2048 1.59844 21.0456 1.71887 21.7927 2.08011C21.8746 2.1202 21.9669 2.13377 22.0567 2.11892C22.1467 2.10409 22.2297 2.06158 22.2944 1.99732C22.3435 1.94848 22.3804 1.88862 22.4018 1.82271C22.4232 1.75679 22.4286 1.68672 22.4175 1.61831C22.4065 1.54989 22.3793 1.4851 22.3382 1.4293C22.297 1.37351 22.2432 1.32832 22.1811 1.29749C21.2687 0.854517 20.2412 0.706599 19.241 0.87427C18.2409 1.04194 17.3176 1.51688 16.5997 2.23314C16.5584 2.27439 16.5258 2.32349 16.5039 2.37753C16.4819 2.43158 16.4709 2.48948 16.4717 2.54781C16.4725 2.60615 16.4849 2.66375 16.5082 2.7172C16.5317 2.77066 16.5655 2.81888 16.6078 2.85903C16.6924 2.93662 16.8037 2.97849 16.9185 2.97588C17.0332 2.97327 17.1424 2.92638 17.2234 2.84503Z" fill="url(#paint6_linear_1_687)"/>
<path d="M7.71727 23.6671C7.12854 24.2519 6.37279 24.6397 5.55434 24.7767C4.73588 24.9137 3.89509 24.7932 3.148 24.432C3.06614 24.392 2.97383 24.3784 2.88393 24.3932C2.79401 24.4081 2.71097 24.4507 2.64634 24.5149C2.59717 24.5637 2.56035 24.6235 2.53893 24.6895C2.51751 24.7554 2.51211 24.8255 2.52317 24.8938C2.53425 24.9623 2.56148 25.027 2.60259 25.0828C2.64371 25.1386 2.69753 25.1839 2.7596 25.2147C3.67191 25.6577 4.69949 25.8055 5.69969 25.6378C6.69988 25.4702 7.62306 24.9952 8.34104 24.279C8.38229 24.2378 8.41487 24.1886 8.43684 24.1346C8.4588 24.0806 8.46972 24.0227 8.46895 23.9644C8.46817 23.906 8.45573 23.8484 8.43233 23.795C8.40894 23.7415 8.37508 23.6932 8.33275 23.6531C8.24823 23.5755 8.13693 23.5336 8.02219 23.5362C7.90746 23.5389 7.79818 23.5857 7.71727 23.6671Z" fill="url(#paint7_linear_1_687)"/>
<path d="M1.2944 22.5782C0.933106 21.8311 0.812646 20.9903 0.949641 20.1719C1.08664 19.3534 1.47434 18.5977 2.05921 18.0089C2.14055 17.928 2.18745 17.8187 2.19006 17.704C2.19267 17.5892 2.15079 17.4779 2.07321 17.3934C2.03305 17.351 1.98482 17.3172 1.93137 17.2938C1.87792 17.2705 1.82032 17.258 1.76199 17.2572C1.70366 17.2565 1.64575 17.2674 1.59171 17.2894C1.53766 17.3114 1.48856 17.344 1.44731 17.3852C0.731053 18.1032 0.256112 19.0264 0.0884423 20.0266C-0.0792283 21.0268 0.0686893 22.0543 0.511658 22.9666C0.542493 23.0287 0.587683 23.0826 0.643476 23.1237C0.69927 23.1648 0.764062 23.192 0.832479 23.203C0.900896 23.2141 0.970969 23.2087 1.03688 23.1873C1.1028 23.1659 1.16265 23.1291 1.2115 23.0799C1.27574 23.0152 1.31825 22.9322 1.33311 22.8423C1.34797 22.7524 1.33444 22.6601 1.2944 22.5782Z" fill="url(#paint8_linear_1_687)"/>
</g>
<defs>
<filter id="filter0_d_1_687" x="0.0212402" y="0.807068" width="36.8982" height="32.898" filterUnits="userSpaceOnUse" color-interpolation-filters="sRGB">
<feFlood flood-opacity="0" result="BackgroundImageFix"/>
<feColorMatrix in="SourceAlpha" type="matrix" values="0 0 0 0 0 0 0 0 0 0 0 0 0 0 0 0 0 0 127 0" result="hardAlpha"/>
<feOffset dx="8" dy="4"/>
<feGaussianBlur stdDeviation="2"/>
<feComposite in2="hardAlpha" operator="out"/>
<feColorMatrix type="matrix" values="0 0 0 0 0 0 0 0 0 0 0 0 0 0 0 0 0 0 0.25 0"/>
<feBlend mode="normal" in2="BackgroundImageFix" result="effect1_dropShadow_1_687"/>
<feBlend mode="normal" in="SourceGraphic" in2="effect1_dropShadow_1_687" result="shape"/>
</filter>
<linearGradient id="paint0_linear_1_687" x1="12.4703" y1="24.3485" x2="12.4703" y2="9.70856" gradientUnits="userSpaceOnUse">
<stop offset="0.005" stop-color="#3F51DC"/>
<stop offset="1" stop-color="#2AC3D1"/>
</linearGradient>
<linearGradient id="paint1_linear_1_687" x1="5.49465" y1="24.3546" x2="5.49465" y2="9.71091" gradientUnits="userSpaceOnUse">
<stop offset="0.005" stop-color="#3F51DC"/>
<stop offset="1" stop-color="#2AC3D1"/>
</linearGradient>
<linearGradient id="paint2_linear_1_687" x1="1.10727" y1="24.3464" x2="1.10727" y2="9.70991" gradientUnits="userSpaceOnUse">
<stop offset="0.005" stop-color="#3F51DC"/>
<stop offset="1" stop-color="#2AC3D1"/>
</linearGradient>
<linearGradient id="paint3_linear_1_687" x1="19.4465" y1="24.3473" x2="19.4465" y2="9.70556" gradientUnits="userSpaceOnUse">
<stop offset="0.005" stop-color="#3F51DC"/>
<stop offset="1" stop-color="#2AC3D1"/>
</linearGradient>
<linearGradient id="paint4_linear_1_687" x1="23.8349" y1="24.3474" x2="23.8349" y2="9.70802" gradientUnits="userSpaceOnUse">
<stop offset="0.005" stop-color="#3F51DC"/>
<stop offset="1" stop-color="#2AC3D1"/>
</linearGradient>
<linearGradient id="paint5_linear_1_687" x1="23.8349" y1="24.3477" x2="23.8349" y2="9.70724" gradientUnits="userSpaceOnUse">
<stop offset="0.005" stop-color="#3F51DC"/>
<stop offset="1" stop-color="#2AC3D1"/>
</linearGradient>
<linearGradient id="paint6_linear_1_687" x1="19.4474" y1="24.3551" x2="19.4474" y2="9.71053" gradientUnits="userSpaceOnUse">
<stop offset="0.005" stop-color="#3F51DC"/>
<stop offset="1" stop-color="#2AC3D1"/>
</linearGradient>
<linearGradient id="paint7_linear_1_687" x1="5.49328" y1="24.3473" x2="5.49328" y2="9.70465" gradientUnits="userSpaceOnUse">
<stop offset="0.005" stop-color="#3F51DC"/>
<stop offset="1" stop-color="#2AC3D1"/>
</linearGradient>
<linearGradient id="paint8_linear_1_687" x1="1.10571" y1="24.3453" x2="1.10571" y2="9.71073" gradientUnits="userSpaceOnUse">
<stop offset="0.005" stop-color="#3F51DC"/>
<stop offset="1" stop-color="#2AC3D1"/>
</linearGradient>
</defs>
</svg>
