<svg width="31" height="15" viewBox="0 0 31 20" fill="none" xmlns="http://www.w3.org/2000/svg">
<path d="M22.4875 1.00355C21.7922 0.764474 21.058 0.643926 20.3186 0.647444C17.9312 0.647444 16.244 1.79479 16.2337 3.43677C16.2141 4.64362 17.4298 5.32385 18.3485 5.73058C19.2925 6.14707 19.608 6.40637 19.6034 6.7758C19.5987 7.34503 18.849 7.59901 18.159 7.59901C17.2001 7.59901 16.68 7.47468 15.878 7.15499L15.5801 7.0209L15.2403 8.91774C15.8238 9.14419 16.8696 9.34311 17.9489 9.36176C20.4922 9.36176 22.1505 8.22419 22.1691 6.47031C22.1888 5.50857 21.538 4.7786 20.1515 4.17651C19.3149 3.78844 18.7911 3.5238 18.7911 3.12596C18.7911 2.7743 19.2383 2.40487 20.172 2.40487C20.7916 2.39011 21.4076 2.4987 21.9805 2.72368L22.2093 2.82047L22.5445 0.993779L22.4875 1.00355ZM28.6937 0.804627H26.8264C26.2428 0.804627 25.8096 0.952929 25.5519 1.50351L21.9628 9.24099H24.5015L25.0132 7.97376L28.1102 7.9782C28.1877 8.27392 28.4062 9.2401 28.4062 9.2401H30.6479L28.6937 0.804627ZM12.7959 0.73536H15.2132L13.7006 9.17528H11.2833L12.7959 0.73092V0.73536ZM6.64943 5.38335L6.89686 6.55823L9.26469 0.804627H11.8277L8.01448 9.22678H5.46272L3.37127 2.09495C3.35524 2.03571 3.3267 1.98019 3.28737 1.93179C3.24804 1.88339 3.19875 1.84312 3.14251 1.81344C2.39125 1.4418 1.5943 1.1605 0.77002 0.976018L0.798964 0.799299H4.69897C5.22463 0.817948 5.65226 0.976018 5.79791 1.51239L6.64943 5.38779V5.38335ZM25.7022 6.2483L26.6704 3.88523C26.6555 3.90743 26.8693 3.39948 26.9907 3.07978L27.156 3.80531L27.7162 6.24297H25.7022V6.2483Z" fill="white"/>
</svg>
