<svg width="18" height="16" viewBox="0 0 18 16" fill="none" xmlns="http://www.w3.org/2000/svg">
<path d="M4.11591 0.313568C1.99362 0.313568 0.219238 2.08862 0.219238 4.21024V11.165C0.219238 13.2859 1.99429 15.061 4.11591 15.061H13.752C15.873 15.061 17.648 13.2859 17.648 11.1643V4.21024C17.648 2.08929 15.873 0.313568 13.7514 0.313568H4.11591ZM4.11591 1.65424H13.752C15.1162 1.65424 16.3074 2.84543 16.3074 4.21024V5.00593H12.2853C11.9133 5.00593 11.615 4.70763 11.615 4.3356C11.615 3.96356 11.9133 3.66526 12.2853 3.66526C12.4631 3.66526 12.6336 3.59463 12.7593 3.46892C12.885 3.34321 12.9557 3.1727 12.9557 2.99492C12.9557 2.81713 12.885 2.64663 12.7593 2.52092C12.6336 2.39521 12.4631 2.32458 12.2853 2.32458C11.1826 2.32458 10.2743 3.23289 10.2743 4.3356C10.2743 5.20167 10.8401 5.94038 11.615 6.22125V9.55149C10.8119 10.0971 10.2743 11.0128 10.2743 12.0445C10.2743 12.6632 10.4707 13.2384 10.7978 13.7203H7.07009C7.40895 13.227 7.59117 12.643 7.59296 12.0445C7.59296 11.0135 7.05535 10.0971 6.25228 9.55149V6.22058C7.02719 5.94038 7.59296 5.20167 7.59296 4.3356C7.59296 3.23289 6.68465 2.32458 5.58194 2.32458H4.24127C4.22027 2.32359 4.19925 2.32359 4.17825 2.32458C4.15749 2.32362 4.13668 2.32362 4.11591 2.32458C3.93813 2.3412 3.77423 2.42777 3.66027 2.56524C3.54631 2.7027 3.49163 2.87981 3.50825 3.0576C3.52487 3.23538 3.61144 3.39928 3.74891 3.51324C3.88637 3.6272 4.06348 3.68188 4.24127 3.66526H5.58194C5.95398 3.66526 6.25228 3.96356 6.25228 4.3356C6.25228 4.70763 5.95398 5.00593 5.58194 5.00593H1.55991V4.20957C1.55991 2.84543 2.7511 1.65424 4.11591 1.65424ZM1.55991 6.34661H4.9116V9.02796H1.55991V6.34661ZM12.9557 6.34661H16.3074V9.02796H12.9557V6.34661ZM1.55991 10.3686H4.57644C5.47402 10.3686 6.25228 11.1469 6.25228 12.0445C6.25228 12.9421 5.47402 13.7203 4.57644 13.7203H4.11524C2.7511 13.7203 1.55991 12.5291 1.55991 11.1643V10.3686ZM13.2908 10.3686H16.3074V11.165C16.3074 12.5291 15.1162 13.7203 13.7514 13.7203H13.2908C12.3932 13.7203 11.615 12.9421 11.615 12.0445C11.615 11.1469 12.3932 10.3686 13.2908 10.3686Z" fill="white"/>
</svg>
