<svg width="193" height="56" viewBox="0 0 193 56" fill="none" xmlns="http://www.w3.org/2000/svg">
<path d="M192.587 30.8164V48.0231C192.587 52.0286 189.317 55.3007 185.313 55.3007H2.33643C1.82894 55.3007 1.32146 55.2443 0.870361 55.1314C2.4492 54.4545 4.02805 53.7211 5.60689 53.0441C15.3619 48.7565 24.6658 43.5099 33.1803 37.1349C35.041 35.7245 37.0146 34.427 39.2137 33.2422C43.5555 31.8883 47.5026 30.5907 50.8295 29.2932C56.5246 27.1494 60.6408 25.062 62.7272 22.6361C67.802 16.8253 67.1818 4.13185 73.6099 3.79335C82.8574 3.28561 87.3684 19.7589 88.4398 24.9492C89.5675 30.1394 99.8864 29.9137 99.8864 29.9137C99.8864 29.9137 103.326 24.4414 107.837 18.6306C111.897 13.384 116.859 7.79885 120.975 5.7679C127.911 2.27014 133.437 11.4094 137.384 18.9691C138.399 20.8872 139.301 22.6925 140.09 24.1593C143.981 31.4369 145.898 33.1294 149.282 25.1184C150.691 21.8463 151.932 17.5023 153.623 13.384C156.048 7.46036 159.319 1.98806 165.014 0.690502C171.216 -0.719885 176.347 7.12187 180.52 14.1738C182.832 18.0665 184.806 21.6771 186.497 23.4259C187.738 24.7235 189.993 27.4314 192.587 30.8164Z" fill="url(#paint0_linear_1_445)"/>
<defs>
<linearGradient id="paint0_linear_1_445" x1="94.6192" y1="51.9637" x2="159.835" y2="10.7064" gradientUnits="userSpaceOnUse">
<stop stop-color="#7B4397" stop-opacity="0"/>
<stop offset="1" stop-color="#7B4397" stop-opacity="0.8"/>
</linearGradient>
</defs>
</svg>
