<svg width="193" height="61" viewBox="0 0 193 61" fill="none" xmlns="http://www.w3.org/2000/svg">
<path d="M192.587 0.544861V53.0695C192.587 57.0494 189.317 60.3007 185.313 60.3007H2.33643C1.82894 60.3007 1.32146 60.2446 0.870361 60.1325C2.4492 59.4599 4.02805 58.7311 5.60689 58.0585C15.3619 53.7982 24.6658 48.585 33.1803 42.2506C35.041 40.8492 37.0146 39.5599 39.2137 38.3828C42.3714 36.7571 46.0365 35.4118 50.8295 34.4588C52.5775 34.1225 54.4946 33.8422 56.6373 33.618C75.9782 31.7121 76.3165 39.3918 84.3235 33.618C85.9023 32.4969 87.2556 31.2636 88.4398 30.1425C93.3454 25.4338 96.334 21.3977 107.217 23.696C107.442 23.7521 107.611 23.8082 107.837 23.8642C120.919 26.8352 125.655 33.1135 130.561 30.7591C132.873 29.638 135.072 26.8912 137.44 24.1445C140.147 20.9493 142.966 17.8102 146.18 17.3056C149.338 16.8011 151.593 17.1935 153.68 18.651C155.541 19.8842 157.232 21.9583 159.262 24.8732C163.604 31.1515 167.833 33.7861 173.415 32.1045C177.532 30.8712 179.167 24.8732 180.577 19.4358C181.084 17.5859 181.535 15.7921 182.099 14.3347C184.073 8.61694 186.554 0.937254 192.587 0.544861Z" fill="url(#paint0_linear_1_446)"/>
<defs>
<linearGradient id="paint0_linear_1_446" x1="96.7126" y1="0.544861" x2="96.7126" y2="67.5668" gradientUnits="userSpaceOnUse">
<stop offset="0.3014" stop-color="white"/>
<stop offset="1" stop-color="#DC2430" stop-opacity="0"/>
</linearGradient>
</defs>
</svg>
